<svg width="18" height="19" viewBox="0 0 18 19" fill="none" xmlns="http://www.w3.org/2000/svg">
<g clip-path="url(#clip0_2843_9986)">
<path d="M16.3619 14.0379H15.5437V7.49248C15.5437 3.88348 12.6073 0.947021 8.99825 0.947021C5.38925 0.947021 2.45279 3.88348 2.45279 7.49248V14.0379H1.6346C1.18214 14.0379 0.816406 14.4037 0.816406 14.8561C0.816406 15.3086 1.18214 15.6743 1.6346 15.6743H2.45279H5.72552C5.72552 17.4792 7.19333 18.947 8.99825 18.947C10.8032 18.947 12.271 17.4792 12.271 15.6743H15.5437H16.3619C16.8144 15.6743 17.1801 15.3086 17.1801 14.8561C17.1801 14.4036 16.8143 14.0379 16.3619 14.0379ZM8.99825 17.3107C8.09579 17.3107 7.3619 16.5768 7.3619 15.6743H10.6346C10.6346 16.5768 9.90071 17.3107 8.99825 17.3107ZM13.9073 14.0379H12.271H5.72552H4.08917V7.49248C4.08917 4.78513 6.2909 2.5834 8.99825 2.5834C11.7056 2.5834 13.9073 4.78513 13.9073 7.49248V14.0379Z" fill="#696969"/>
</g>
<defs>
<clipPath id="clip0_2843_9986">
<rect width="18" height="18" fill="white" transform="translate(0 0.947021)"/>
</clipPath>
</defs>
</svg>
