<svg width="20" height="20" viewBox="0 0 20 20" fill="none" xmlns="http://www.w3.org/2000/svg">
<g clip-path="url(#clip0_2843_9990)">
<path d="M16.1719 5.81055C16.3876 5.81055 16.5625 5.63566 16.5625 5.41992V1.17188C16.5625 0.525703 16.0368 0 15.3906 0H1.17188C0.525703 0 0 0.525703 0 1.17188V18.8281C0 19.4743 0.525703 20 1.17188 20H15.3906C16.0368 20 16.5625 19.4743 16.5625 18.8281V15.9503C16.5625 15.7346 16.3876 15.5597 16.1719 15.5597C15.9562 15.5597 15.7813 15.7346 15.7813 15.9503V18.8281C15.7813 19.0435 15.606 19.2188 15.3906 19.2188H1.17188C0.956485 19.2188 0.781251 19.0435 0.781251 18.8281V1.17188C0.781251 0.956484 0.956485 0.78125 1.17188 0.78125H15.3906C15.606 0.78125 15.7813 0.956484 15.7813 1.17188V5.41992C15.7813 5.63566 15.9562 5.81055 16.1719 5.81055Z" fill="#696969"/>
<path d="M8.28125 2.10938C6.29965 2.10938 4.6875 3.72152 4.6875 5.70312C4.6875 6.73113 5.12148 7.65957 5.8157 8.3152C5.82871 8.3291 5.84254 8.34227 5.85766 8.35426C6.49715 8.93937 7.3482 9.29684 8.28121 9.29684C9.21422 9.29684 10.0653 8.93934 10.7048 8.35426C10.7199 8.34227 10.7337 8.32906 10.7467 8.3152C11.441 7.65957 11.875 6.73113 11.875 5.70312C11.875 3.72152 10.2629 2.10938 8.28125 2.10938ZM8.28125 8.51562C7.6434 8.51562 7.05473 8.30188 6.58238 7.94266C6.9257 7.33387 7.56637 6.95312 8.28125 6.95312C8.99613 6.95312 9.6368 7.33387 9.98012 7.94266C9.50773 8.30188 8.9191 8.51562 8.28125 8.51562ZM7.65625 5.54688V5.29297C7.65625 4.94836 7.93664 4.66797 8.28125 4.66797C8.62586 4.66797 8.90625 4.94836 8.90625 5.29297V5.54688C8.90625 5.89148 8.62586 6.17188 8.28125 6.17188C7.93664 6.17188 7.65625 5.89148 7.65625 5.54688ZM10.5445 7.37043C10.2564 6.94316 9.85719 6.61086 9.39363 6.4057C9.57762 6.16793 9.6875 5.87008 9.6875 5.54688V5.29297C9.6875 4.51754 9.05668 3.88672 8.28125 3.88672C7.50582 3.88672 6.875 4.51754 6.875 5.29297V5.54688C6.875 5.87008 6.98488 6.16793 7.16887 6.4057C6.70531 6.61086 6.30605 6.94316 6.01797 7.37043C5.67309 6.90352 5.46875 6.32684 5.46875 5.70312C5.46875 4.1523 6.73043 2.89062 8.28125 2.89062C9.83207 2.89062 11.0937 4.1523 11.0937 5.70312C11.0937 6.32684 10.8894 6.90352 10.5445 7.37043Z" fill="#696969"/>
<path d="M10.3906 17.1094H8.28125C8.06555 17.1094 7.89062 17.2843 7.89062 17.5C7.89062 17.7157 8.06555 17.8906 8.28125 17.8906H10.3906C10.6063 17.8906 10.7812 17.7157 10.7812 17.5C10.7812 17.2843 10.6063 17.1094 10.3906 17.1094Z" fill="#696969"/>
<path d="M10.3906 14.9219H4.84375C4.62805 14.9219 4.45312 15.0968 4.45312 15.3125C4.45312 15.5282 4.62805 15.7031 4.84375 15.7031H10.3906C10.6063 15.7031 10.7812 15.5282 10.7812 15.3125C10.7812 15.0968 10.6063 14.9219 10.3906 14.9219Z" fill="#696969"/>
<path d="M10.3906 12.7344H4.84375C4.62805 12.7344 4.45312 12.9093 4.45312 13.125C4.45312 13.3407 4.62805 13.5156 4.84375 13.5156H10.3906C10.6063 13.5156 10.7812 13.3407 10.7812 13.125C10.7812 12.9093 10.6063 12.7344 10.3906 12.7344Z" fill="#696969"/>
<path d="M3.4523 10.6613C3.37969 10.5887 3.27891 10.5469 3.17578 10.5469C3.07301 10.5469 2.97223 10.5887 2.89961 10.6613C2.82695 10.734 2.78516 10.8348 2.78516 10.9375C2.78516 11.0402 2.82691 11.141 2.89961 11.2137C2.97266 11.2863 3.07301 11.3281 3.17578 11.3281C3.27891 11.3281 3.3793 11.2863 3.4523 11.2137C3.52496 11.141 3.5668 11.0402 3.5668 10.9375C3.5668 10.8348 3.525 10.734 3.4523 10.6613Z" fill="#696969"/>
<path d="M3.4523 12.8488C3.3793 12.7762 3.27891 12.7344 3.17578 12.7344C3.07301 12.7344 2.97266 12.7762 2.89961 12.8488C2.82695 12.9215 2.78516 13.0223 2.78516 13.125C2.78516 13.2277 2.82691 13.3285 2.89961 13.4012C2.97266 13.4738 3.07301 13.5156 3.17578 13.5156C3.27891 13.5156 3.3793 13.4738 3.4523 13.4012C3.52496 13.3285 3.5668 13.2277 3.5668 13.125C3.5668 13.0223 3.525 12.9215 3.4523 12.8488Z" fill="#696969"/>
<path d="M3.4523 15.0363C3.3793 14.9637 3.27891 14.9219 3.17578 14.9219C3.07301 14.9219 2.97266 14.9637 2.89961 15.0363C2.82695 15.109 2.78516 15.2098 2.78516 15.3125C2.78516 15.4152 2.82691 15.516 2.89961 15.5887C2.97223 15.6613 3.07301 15.7031 3.17578 15.7031C3.27891 15.7031 3.37969 15.6613 3.4523 15.5887C3.52496 15.516 3.5668 15.4152 3.5668 15.3125C3.5668 15.2098 3.525 15.109 3.4523 15.0363Z" fill="#696969"/>
<path d="M10.3906 10.5469H4.84375C4.62805 10.5469 4.45312 10.7218 4.45312 10.9375C4.45312 11.1532 4.62805 11.3281 4.84375 11.3281H10.3906C10.6063 11.3281 10.7812 11.1532 10.7812 10.9375C10.7812 10.7218 10.6063 10.5469 10.3906 10.5469Z" fill="#696969"/>
<path d="M19.1802 5.09062C18.8007 4.87152 18.3586 4.81331 17.9352 4.92671C17.5119 5.04015 17.1581 5.31163 16.9391 5.69113L12.0234 14.2053C11.9964 14.252 11.9794 14.3037 11.9734 14.3573L11.6274 17.4567C11.6102 17.6109 11.6859 17.7607 11.8203 17.8383C11.881 17.8733 11.9484 17.8907 12.0156 17.8907C12.0973 17.8907 12.1787 17.8651 12.2473 17.8146L14.7584 15.9652C14.8017 15.9332 14.8381 15.8927 14.865 15.846L19.7807 7.33179C20.233 6.54835 19.9636 5.54296 19.1802 5.09062ZM12.5029 16.656L12.6836 15.0376L13.8141 15.6903L12.5029 16.656ZM14.3837 15.117L12.8953 14.2577L16.84 7.42523L18.3285 8.2846L14.3837 15.117ZM19.1041 6.94113L18.7191 7.60804L17.2306 6.74867L17.6156 6.08175C17.7304 5.88296 17.9157 5.74077 18.1374 5.68136C18.3592 5.62191 18.5908 5.65245 18.7895 5.76722C18.9883 5.88199 19.1305 6.0673 19.1899 6.28902C19.2493 6.51073 19.2189 6.74234 19.1041 6.94113Z" fill="#696969"/>
</g>
<defs>
<clipPath id="clip0_2843_9990">
<rect width="20" height="20" fill="white"/>
</clipPath>
</defs>
</svg>
