<svg width="36" height="36" viewBox="0 0 36 36" fill="none" xmlns="http://www.w3.org/2000/svg">
<path d="M19.431 17.424L23.8665 12.9885L9.54 4.93649C8.5905 4.42349 7.701 4.35149 6.921 4.91249L19.431 17.424ZM24.6225 22.617L29.2335 20.0235C30.1335 19.5195 30.627 18.8055 30.627 18.0135C30.627 17.223 30.1335 16.5075 29.235 16.0035L25.0605 13.659L20.361 18.357L24.6225 22.617ZM6.15 6.00299C6.054 6.29849 6 6.62849 6 6.98999V29.0475C6 29.619 6.126 30.111 6.354 30.5025L18.4995 18.3555L6.15 6.00299ZM19.431 19.2855L7.353 31.365C7.584 31.4535 7.833 31.5 8.0955 31.5C8.5635 31.5 9.051 31.362 9.5475 31.086L23.43 23.2905L19.431 19.2855Z" fill="white"/>
</svg>
