<svg width="50" height="50" viewBox="0 0 50 50" fill="none" xmlns="http://www.w3.org/2000/svg">
<path d="M46.875 37.5V34.375H43.5922C43.3907 33.3969 43.0023 32.4669 42.4484 31.6359L44.7766 29.3078L42.5672 27.0984L40.2391 29.4266C39.4081 28.8727 38.4781 28.4843 37.5 28.2828V25H34.375V28.2828C33.3969 28.4843 32.4669 28.8727 31.6359 29.4266L29.3078 27.0984L27.0984 29.3078L29.4266 31.6359C28.8727 32.4669 28.4843 33.3969 28.2828 34.375H25V37.5H28.2828C28.4843 38.4781 28.8727 39.4081 29.4266 40.2391L27.0984 42.5672L29.3078 44.7766L31.6359 42.4484C32.4669 43.0023 33.3969 43.3907 34.375 43.5922V46.875H37.5V43.5922C38.4781 43.3907 39.4081 43.0023 40.2391 42.4484L42.5672 44.7766L44.7766 42.5672L42.4484 40.2391C43.0023 39.4081 43.3907 38.4781 43.5922 37.5H46.875ZM35.9375 40.625C35.0104 40.625 34.1041 40.3501 33.3333 39.835C32.5624 39.3199 31.9616 38.5879 31.6068 37.7313C31.252 36.8748 31.1592 35.9323 31.3401 35.023C31.5209 34.1137 31.9674 33.2785 32.6229 32.6229C33.2785 31.9674 34.1137 31.5209 35.023 31.3401C35.9323 31.1592 36.8748 31.252 37.7313 31.6068C38.5879 31.9616 39.3199 32.5624 39.835 33.3333C40.3501 34.1041 40.625 35.0104 40.625 35.9375C40.6238 37.1803 40.1295 38.3719 39.2507 39.2507C38.3719 40.1295 37.1803 40.6238 35.9375 40.625Z" fill="white"/>
<path d="M43.75 6.25H6.25C5.42145 6.25083 4.62708 6.58033 4.0412 7.16621C3.45533 7.75208 3.12583 8.54645 3.125 9.375V40.625C3.12583 41.4535 3.45533 42.2479 4.0412 42.8338C4.62708 43.4197 5.42145 43.7492 6.25 43.75H21.875V40.625H6.25V18.75H43.75V23.4375H46.875V9.375C46.8742 8.54645 46.5447 7.75208 45.9588 7.16621C45.3729 6.58033 44.5785 6.25083 43.75 6.25ZM43.75 15.625H6.25V9.375H43.75V15.625Z" fill="white"/>
<path d="M31.25 14.0625C32.1129 14.0625 32.8125 13.3629 32.8125 12.5C32.8125 11.6371 32.1129 10.9375 31.25 10.9375C30.3871 10.9375 29.6875 11.6371 29.6875 12.5C29.6875 13.3629 30.3871 14.0625 31.25 14.0625Z" fill="white"/>
<path d="M35.9375 14.0625C36.8004 14.0625 37.5 13.3629 37.5 12.5C37.5 11.6371 36.8004 10.9375 35.9375 10.9375C35.0746 10.9375 34.375 11.6371 34.375 12.5C34.375 13.3629 35.0746 14.0625 35.9375 14.0625Z" fill="white"/>
<path d="M40.625 14.0625C41.4879 14.0625 42.1875 13.3629 42.1875 12.5C42.1875 11.6371 41.4879 10.9375 40.625 10.9375C39.7621 10.9375 39.0625 11.6371 39.0625 12.5C39.0625 13.3629 39.7621 14.0625 40.625 14.0625Z" fill="white"/>
</svg>
