<svg width="20" height="20" viewBox="0 0 20 20" fill="none" xmlns="http://www.w3.org/2000/svg">
<g clip-path="url(#clip0_2843_10848)">
<path d="M17.5 0.625244H3.125C2.87659 0.625986 2.63856 0.724996 2.46291 0.900651C2.28725 1.07631 2.18824 1.31433 2.1875 1.56274V18.4377C2.18824 18.6862 2.28725 18.9242 2.46291 19.0998C2.63856 19.2755 2.87659 19.3745 3.125 19.3752H17.5C17.5829 19.3752 17.6624 19.3423 17.721 19.2837C17.7796 19.2251 17.8125 19.1456 17.8125 19.0627V0.937744C17.8125 0.854864 17.7796 0.775378 17.721 0.716773C17.6624 0.658168 17.5829 0.625244 17.5 0.625244ZM3.75 18.7502H3.125C3.04212 18.7502 2.96263 18.7173 2.90403 18.6587C2.84542 18.6001 2.8125 18.5206 2.8125 18.4377V1.56274C2.8125 1.47986 2.84542 1.40038 2.90403 1.34177C2.96263 1.28317 3.04212 1.25024 3.125 1.25024H3.75V18.7502ZM13.75 1.25024H15.625V3.62212L14.9094 2.90337C14.8501 2.84527 14.7705 2.81273 14.6875 2.81273C14.6045 2.81273 14.5249 2.84527 14.4656 2.90337L13.75 3.62212V1.25024ZM17.1875 18.7502H4.375V1.25024H13.125V4.37524C13.1248 4.43706 13.1431 4.49753 13.1777 4.54879C13.2122 4.60006 13.2614 4.63976 13.3187 4.66274C13.3757 4.68668 13.4384 4.69321 13.499 4.68153C13.5596 4.66985 13.6154 4.64048 13.6594 4.59712L14.6875 3.56587L15.7156 4.59712C15.7747 4.65541 15.8545 4.68798 15.9375 4.68774C15.9785 4.68882 16.0192 4.68026 16.0563 4.66274C16.1136 4.63976 16.1628 4.60006 16.1973 4.54879C16.2319 4.49753 16.2502 4.43706 16.25 4.37524V1.25024H17.1875V18.7502Z" fill="#696969"/>
<path d="M14.6875 5.31274H6.875C6.79212 5.31274 6.71263 5.34567 6.65403 5.40427C6.59542 5.46288 6.5625 5.54236 6.5625 5.62524V8.43774C6.5625 8.52062 6.59542 8.60011 6.65403 8.65872C6.71263 8.71732 6.79212 8.75024 6.875 8.75024H14.6875C14.7704 8.75024 14.8499 8.71732 14.9085 8.65872C14.9671 8.60011 15 8.52062 15 8.43774V5.62524C15 5.54236 14.9671 5.46288 14.9085 5.40427C14.8499 5.34567 14.7704 5.31274 14.6875 5.31274ZM14.375 8.12524H7.1875V5.93774H14.375V8.12524Z" fill="#696969"/>
<path d="M6.5625 10.3127H15V10.9377H6.5625V10.3127Z" fill="#696969"/>
<path d="M6.5625 12.1877H15V12.8127H6.5625V12.1877Z" fill="#696969"/>
<path d="M6.5625 14.0627H15V14.6877H6.5625V14.0627Z" fill="#696969"/>
</g>
<defs>
<clipPath id="clip0_2843_10848">
<rect width="20" height="20" fill="white" transform="translate(0 0.000244141)"/>
</clipPath>
</defs>
</svg>
