<svg width="20" height="20" viewBox="0 0 20 20" fill="none" xmlns="http://www.w3.org/2000/svg">
<g clip-path="url(#clip0_2843_10042)">
<path d="M4.79297 19.1667C4.44797 19.1667 4.16797 18.8867 4.16797 18.5417V4.79175C4.16797 4.44675 4.44797 4.16675 4.79297 4.16675C5.13797 4.16675 5.41797 4.44675 5.41797 4.79175V18.5417C5.41797 18.8867 5.13797 19.1667 4.79297 19.1667Z" fill="#043356"/>
<path d="M19.3763 9.58325H4.79297C4.44797 9.58325 4.16797 9.30325 4.16797 8.95825C4.16797 8.61325 4.44797 8.33325 4.79297 8.33325H19.3763C19.7213 8.33325 20.0013 8.61325 20.0013 8.95825C20.0013 9.30325 19.7213 9.58325 19.3763 9.58325Z" fill="#043356"/>
<path d="M19.3763 14.5833H4.79297C4.44797 14.5833 4.16797 14.3033 4.16797 13.9583C4.16797 13.6133 4.44797 13.3333 4.79297 13.3333H19.3763C19.7213 13.3333 20.0013 13.6133 20.0013 13.9583C20.0013 14.3033 19.7213 14.5833 19.3763 14.5833Z" fill="#043356"/>
<path d="M17.7083 19.1666H2.29167C1.0275 19.1666 0 18.1391 0 16.8749V3.12492C0 1.86075 1.0275 0.833252 2.29167 0.833252H17.7083C18.9725 0.833252 20 1.86075 20 3.12492V16.8749C20 18.1391 18.9725 19.1666 17.7083 19.1666ZM2.29167 2.08325C1.7175 2.08325 1.25 2.55075 1.25 3.12492V16.8749C1.25 17.4491 1.7175 17.9166 2.29167 17.9166H17.7083C18.2825 17.9166 18.75 17.4491 18.75 16.8749V3.12492C18.75 2.55075 18.2825 2.08325 17.7083 2.08325H2.29167Z" fill="#043356"/>
<path d="M19.375 5H0.625C0.28 5 0 4.72 0 4.375C0 4.03 0.28 3.75 0.625 3.75H19.375C19.72 3.75 20 4.03 20 4.375C20 4.72 19.72 5 19.375 5Z" fill="#043356"/>
</g>
<defs>
<clipPath id="clip0_2843_10042">
<rect width="20" height="20" fill="white"/>
</clipPath>
</defs>
</svg>
