<svg width="17" height="17" viewBox="0 0 17 17" fill="none" xmlns="http://www.w3.org/2000/svg">
<g clip-path="url(#clip0_2843_10022)">
<path d="M15.784 2.42858H11.5341V1.82142C11.5341 0.815479 10.7186 0 9.71264 0H7.28406C6.27811 0 5.46263 0.815479 5.46263 1.82142V2.42858H1.21262C0.877295 2.42858 0.605469 2.7004 0.605469 3.03573C0.605469 3.37106 0.877331 3.64285 1.21262 3.64285H1.87257L3.03405 16.4481C3.06269 16.7616 3.32633 17.0013 3.6412 17H13.3555C13.6704 17.0013 13.934 16.7617 13.9626 16.4481L15.1241 3.64285H15.7841C16.1194 3.64285 16.3912 3.37102 16.3912 3.0357C16.3912 2.70037 16.1194 2.42858 15.784 2.42858ZM6.67691 1.82142C6.67691 1.4861 6.94873 1.21427 7.28406 1.21427H9.71264C10.048 1.21427 10.3198 1.4861 10.3198 1.82142V2.42858H6.67694V1.82142H6.67691ZM12.8012 15.7857H4.19553L3.09478 3.64285H6.06979H13.9049L12.8012 15.7857Z" fill="#696969"/>
<path d="M6.67863 13.9238C6.67856 13.923 6.67853 13.9221 6.67845 13.9213L6.0713 5.4213C6.0475 5.08598 5.75635 4.83347 5.42106 4.85727C5.08573 4.88107 4.83322 5.17221 4.85702 5.5075L5.46418 14.0075C5.48684 14.3258 5.75216 14.5723 6.07133 14.5715H6.11506C6.44957 14.5483 6.7019 14.2583 6.67863 13.9238Z" fill="#696969"/>
<path d="M8.50169 4.85718C8.16636 4.85718 7.89453 5.129 7.89453 5.46433V13.9643C7.89453 14.2996 8.16636 14.5715 8.50169 14.5715C8.83701 14.5715 9.10884 14.2996 9.10884 13.9643V5.46433C9.10884 5.129 8.83701 4.85718 8.50169 4.85718Z" fill="#696969"/>
<path d="M11.5794 4.85702C11.244 4.83322 10.9529 5.08573 10.9291 5.42106L10.322 13.921C10.2974 14.2554 10.5485 14.5465 10.8829 14.5711C10.884 14.5711 10.885 14.5712 10.886 14.5713H10.9291C11.2483 14.5721 11.5136 14.3256 11.5363 14.0072L12.1434 5.50726C12.1672 5.17197 11.9147 4.88086 11.5794 4.85702Z" fill="#696969"/>
</g>
<defs>
<clipPath id="clip0_2843_10022">
<rect width="17" height="17" fill="white"/>
</clipPath>
</defs>
</svg>
