<svg width="25" height="25" viewBox="0 0 25 25" fill="none" xmlns="http://www.w3.org/2000/svg">
<g clip-path="url(#clip0_2751_24284)">
<path d="M24.5962 5.98606L12.8287 0.0778564C12.6219 -0.0259521 12.3781 -0.0259521 12.1714 0.0778564L0.40381 5.98606C0.155909 6.11052 -0.000438529 6.36443 9.23975e-07 6.64182C0.000440377 6.91921 0.157667 7.17258 0.405958 7.29626L1.46484 7.82351V19.2177C0.612354 19.5201 9.23975e-07 20.3342 9.23975e-07 21.289V24.2676C9.23975e-07 24.672 0.327882 25 0.732423 25H3.66211C4.0666 25 4.39453 24.672 4.39453 24.2676V21.289C4.39453 20.3342 3.78218 19.5201 2.92969 19.2177V8.55286L4.44336 9.30657V12.5C4.44336 13.9413 5.33149 15.2679 6.94419 16.2355C8.4397 17.1327 10.4128 17.627 12.5 17.627C16.8593 17.627 20.5566 15.4504 20.5566 12.5V9.30662L24.594 7.29631C25.1329 7.02795 25.1351 6.25662 24.5962 5.98606ZM2.92969 23.5352H1.46484V21.2891C1.46484 20.8867 1.79097 20.5593 2.19277 20.5569C2.19429 20.5569 2.19575 20.5572 2.19727 20.5572C2.19878 20.5572 2.20025 20.557 2.20176 20.5569C2.60357 20.5593 2.92969 20.8867 2.92969 21.2891V23.5352ZM19.0918 12.5C19.0918 14.4851 16.0731 16.1621 12.5 16.1621C8.92686 16.1621 5.9082 14.4851 5.9082 12.5V10.036L12.1735 13.1556C12.2763 13.2068 12.3882 13.2324 12.5 13.2324C12.6118 13.2324 12.7236 13.2069 12.8265 13.1556L19.0918 10.036V12.5ZM12.5 11.6819C11.9547 11.4103 2.79878 6.85139 2.37017 6.63796L12.5 1.55203L22.6298 6.63796C22.1813 6.86125 13.0264 11.4198 12.5 11.6819Z" fill="#043356"/>
</g>
<defs>
<clipPath id="clip0_2751_24284">
<rect width="25" height="25" fill="white"/>
</clipPath>
</defs>
</svg>
