<svg width="54" height="54" viewBox="0 0 54 54" fill="none" xmlns="http://www.w3.org/2000/svg">
<g clip-path="url(#clip0_2758_26687)">
<path d="M11.5673 15.0566H52.6958C52.6968 12.217 50.3944 9.91452 47.5548 9.91553H6.42623C3.58659 9.91452 1.28415 12.217 1.28516 15.0566V39.0524C1.28415 41.8921 3.58659 44.194 6.42623 44.1935V20.1977C6.42522 17.358 8.72766 15.0556 11.5673 15.0566Z" fill="#D4E1F4"/>
<path d="M52.0646 13.9255L26.9889 27.9093L1.91311 13.9255C1.29206 13.581 0.509856 13.8055 0.165445 14.4265C-0.178966 15.0476 0.0454533 15.8303 0.666498 16.1747L26.3718 30.5054C26.5651 30.6113 26.7815 30.6686 27.0019 30.6726C27.2228 30.6751 27.4407 30.6174 27.6315 30.5054L53.3368 16.1747C53.9564 15.8293 54.1808 15.0481 53.8379 14.4265C53.4799 13.807 52.6937 13.5851 52.0646 13.9255Z" fill="#1AC4A2"/>
<path d="M47.5549 8.63013H6.42634C2.87779 8.63113 0.00150618 11.5079 0 15.0565V39.0523C0.00150618 42.6008 2.87779 45.4771 6.42634 45.4786H47.5549C51.1034 45.4771 53.9797 42.6008 53.9812 39.0523V15.0565C53.9797 11.5079 51.1034 8.63113 47.5549 8.63013ZM51.4107 39.0392C51.4047 41.1665 49.6816 42.889 47.5549 42.8951H6.42634C4.29962 42.889 2.57656 41.1665 2.57053 39.0392V15.0565C2.57656 12.9292 4.29962 11.2067 6.42634 11.2007H47.5549C49.6816 11.2067 51.4047 12.9292 51.4107 15.0565V39.0392Z" fill="#1AC4A2"/>
</g>
<defs>
<clipPath id="clip0_2758_26687">
<rect width="54" height="54" fill="white"/>
</clipPath>
</defs>
</svg>
