<svg width="50" height="50" viewBox="0 0 50 50" fill="none" xmlns="http://www.w3.org/2000/svg">
<path d="M11.4583 4.16663C10.077 4.16663 8.75224 4.71536 7.77549 5.69211C6.79873 6.66886 6.25 7.99362 6.25 9.37496V40.625C6.25 42.0063 6.79873 43.3311 7.77549 44.3078C8.75224 45.2846 10.077 45.8333 11.4583 45.8333H26.6875C25.7943 44.9035 25.0381 43.8513 24.4417 42.7083H11.4583C10.9058 42.7083 10.3759 42.4888 9.98519 42.0981C9.59449 41.7074 9.375 41.1775 9.375 40.625H23.5688C23.2419 39.6111 23.0363 38.5622 22.9563 37.5H9.375V9.37496C9.375 8.82242 9.59449 8.29252 9.98519 7.90182C10.3759 7.51112 10.9058 7.29163 11.4583 7.29163H35.4167C35.9692 7.29163 36.4991 7.51112 36.8898 7.90182C37.2805 8.29252 37.5 8.82242 37.5 9.37496V22.9562C38.5833 23.0395 39.6292 23.2479 40.625 23.5687V9.37496C40.625 7.99362 40.0763 6.66886 39.0995 5.69211C38.1228 4.71536 36.798 4.16663 35.4167 4.16663H11.4583ZM47.9167 36.4583C47.9167 33.4194 46.7095 30.5049 44.5606 28.356C42.4117 26.2072 39.4973 25 36.4583 25C33.4194 25 30.5049 26.2072 28.3561 28.356C26.2072 30.5049 25 33.4194 25 36.4583C25 39.4972 26.2072 42.4117 28.3561 44.5606C30.5049 46.7094 33.4194 47.9166 36.4583 47.9166C39.4973 47.9166 42.4117 46.7094 44.5606 44.5606C46.7095 42.4117 47.9167 39.4972 47.9167 36.4583ZM35.2375 31.452L41.0833 35.2854C41.2645 35.4016 41.4131 35.5621 41.5151 35.7516C41.6172 35.9411 41.6693 36.1535 41.6667 36.3687C41.6669 36.5853 41.6155 36.7989 41.5167 36.9916C41.4234 37.1824 41.281 37.3449 41.1042 37.4625L35.2563 41.452C35.1545 41.5205 35.0437 41.5745 34.9271 41.6125C34.6563 41.6989 34.3631 41.6818 34.1042 41.5645C33.9549 41.4947 33.8189 41.3995 33.7021 41.2833C33.5893 41.1604 33.4977 41.0196 33.4313 40.8666C33.3662 40.7102 33.3329 40.5423 33.3333 40.3729V32.5437C33.3323 32.293 33.4039 32.0474 33.5396 31.8366C33.6753 31.6259 33.8693 31.459 34.0979 31.3562C34.2795 31.2711 34.4803 31.235 34.6802 31.2514C34.8801 31.2679 35.0722 31.3363 35.2375 31.45V31.452ZM12.5 12.5C12.5 11.9474 12.7195 11.4175 13.1102 11.0268C13.5009 10.6361 14.0308 10.4166 14.5833 10.4166H31.25C31.8025 10.4166 32.3324 10.6361 32.7231 11.0268C33.1138 11.4175 33.3333 11.9474 33.3333 12.5V16.6666C33.3333 17.2192 33.1138 17.7491 32.7231 18.1398C32.3324 18.5305 31.8025 18.75 31.25 18.75H14.5833C14.0308 18.75 13.5009 18.5305 13.1102 18.1398C12.7195 17.7491 12.5 17.2192 12.5 16.6666V12.5ZM15.625 15.625H30.2083V13.5416H15.625V15.625Z" fill="white"/>
</svg>
