<svg width="50" height="50" viewBox="0 0 50 50" fill="none" xmlns="http://www.w3.org/2000/svg">
<path d="M9.375 9.375C9.375 7.7174 10.0335 6.12769 11.2056 4.95558C12.3777 3.78348 13.9674 3.125 15.625 3.125C17.2826 3.125 18.8723 3.78348 20.0444 4.95558C21.2165 6.12769 21.875 7.7174 21.875 9.375C21.875 11.0326 21.2165 12.6223 20.0444 13.7944C18.8723 14.9665 17.2826 15.625 15.625 15.625C13.9674 15.625 12.3777 14.9665 11.2056 13.7944C10.0335 12.6223 9.375 11.0326 9.375 9.375ZM30.5594 14.325L30.6906 14.425C32.0165 15.4078 33.6774 15.8263 35.3107 15.5891C36.944 15.3519 38.4172 14.4783 39.4088 13.1589C40.4003 11.8395 40.8298 10.1814 40.6033 8.54656C40.3769 6.91171 39.513 5.43278 38.2002 4.43254C36.8874 3.43229 35.2322 2.99193 33.5959 3.20755C31.9596 3.42318 30.475 4.27729 29.4661 5.58348C28.4572 6.88968 28.0059 8.54191 28.2108 10.1796C28.4156 11.8173 29.2599 13.3075 30.5594 14.325ZM19.5875 18.75C19.98 18.0068 20.5184 17.3503 21.1705 16.82C21.8225 16.2896 22.5749 15.8962 23.3825 15.6633C24.1901 15.4305 25.0364 15.3629 25.8707 15.4646C26.705 15.5663 27.5103 15.8353 28.2382 16.2555C28.9662 16.6756 29.602 17.2382 30.1075 17.9098C30.613 18.5813 30.9779 19.3478 31.1803 20.1636C31.3827 20.9794 31.4184 21.8276 31.2854 22.6576C31.1524 23.4875 30.8534 24.2821 30.4062 24.9937C29.546 26.3629 28.1886 27.3454 26.6192 27.7347C25.0498 28.1241 23.3906 27.8901 21.9901 27.0818C20.5896 26.2736 19.5569 24.954 19.1089 23.4003C18.6608 21.8467 18.8324 20.1798 19.5875 18.75ZM7.8125 18.75H16.1562C15.6009 20.3361 15.4801 22.042 15.8065 23.6905C16.1329 25.3391 16.8946 26.8702 18.0125 28.125H17.1875C15.5764 28.1248 14.0045 28.6225 12.6871 29.5499C11.3697 30.4774 10.3712 31.7894 9.82812 33.3062C8.77917 32.8849 7.79703 32.3133 6.9125 31.6094C4.5625 29.7188 3.125 26.925 3.125 23.4375C3.125 22.1943 3.61886 21.002 4.49794 20.1229C5.37701 19.2439 6.5693 18.75 7.8125 18.75ZM32.8125 28.125C34.4232 28.125 35.9946 28.6228 37.3114 29.5503C38.6283 30.4778 39.6263 31.7896 40.1688 33.3062C41.2313 32.8719 42.2156 32.3062 43.0875 31.6094C45.4375 29.7188 46.875 26.925 46.875 23.4375C46.875 22.1943 46.3811 21.002 45.5021 20.1229C44.623 19.2439 43.4307 18.75 42.1875 18.75H33.8438C34.1875 19.7281 34.375 20.7812 34.375 21.875C34.3779 24.1816 33.5275 26.4078 31.9875 28.125H32.8125ZM37.1469 34.15C37.375 34.7 37.5 35.3063 37.5 35.9375C37.5 39.425 36.0656 42.2188 33.7125 44.1094C31.3969 45.9688 28.2906 46.875 25 46.875C21.7094 46.875 18.6031 45.9688 16.2875 44.1094C13.9375 42.2188 12.5 39.425 12.5 35.9375C12.4984 35.3215 12.6185 34.7112 12.8535 34.1417C13.0884 33.5723 13.4337 33.0549 13.8693 32.6193C14.3049 32.1837 14.8223 31.8384 15.3917 31.6035C15.9612 31.3685 16.5715 31.2484 17.1875 31.25H32.8125C33.7409 31.2498 34.6486 31.5253 35.4202 32.0416C36.1919 32.5579 36.7928 33.2917 37.1469 34.15Z" fill="white"/>
</svg>
