<svg width="36" height="36" viewBox="0 0 36 36" fill="none" xmlns="http://www.w3.org/2000/svg">
<path d="M25.575 30.4198C24.105 31.8448 22.5 31.6198 20.955 30.9448C19.32 30.2548 17.82 30.2248 16.095 30.9448C13.935 31.8748 12.795 31.6048 11.505 30.4198C4.185 22.8748 5.265 11.3848 13.575 10.9648C15.6 11.0698 17.01 12.0748 18.195 12.1648C19.965 11.8048 21.66 10.7698 23.55 10.9048C25.815 11.0848 27.525 11.9848 28.65 13.6048C23.97 16.4098 25.08 22.5748 29.37 24.2998C28.515 26.5498 27.405 28.7848 25.56 30.4348L25.575 30.4198ZM18.045 10.8748C17.82 7.52976 20.535 4.76976 23.655 4.49976C24.09 8.36976 20.145 11.2498 18.045 10.8748Z" fill="#1AC4A2"/>
</svg>
