<svg width="39" height="39" viewBox="0 0 39 39" fill="none" xmlns="http://www.w3.org/2000/svg">
<path d="M27.7063 32.955C26.1138 34.4988 24.375 34.255 22.7013 33.5238C20.93 32.7763 19.305 32.7438 17.4363 33.5238C15.0963 34.5313 13.8613 34.2388 12.4638 32.955C4.53377 24.7813 5.70377 12.3338 14.7063 11.8788C16.9 11.9925 18.4275 13.0813 19.7113 13.1788C21.6288 12.7888 23.465 11.6675 25.5125 11.8138C27.9663 12.0088 29.8188 12.9838 31.0375 14.7388C25.9675 17.7775 27.17 24.4563 31.8175 26.325C30.8913 28.7625 29.6888 31.1838 27.69 32.9713L27.7063 32.955ZM19.5488 11.7813C19.305 8.1575 22.2463 5.1675 25.6263 4.875C26.0975 9.0675 21.8238 12.1875 19.5488 11.7813Z" fill="white"/>
</svg>
