<svg width="50" height="50" viewBox="0 0 50 50" fill="none" xmlns="http://www.w3.org/2000/svg">
<path d="M32.2917 28.125C32.2917 32.2917 27.0833 35.4167 27.0833 38.5417H22.9167C22.9167 35.4167 17.7083 32.2917 17.7083 28.125C17.7083 24.1042 20.9792 20.8334 25 20.8334C29.0208 20.8334 32.2917 24.1042 32.2917 28.125ZM27.0833 40.625H22.9167V43.75H27.0833V40.625ZM39.5833 27.0834C39.5833 30.5834 38.3542 33.7709 36.2917 36.2917L39.25 39.25C40.8519 37.3806 42.0689 35.2133 42.8314 32.8725C43.5939 30.5317 43.8867 28.0634 43.6932 25.6091C43.4996 23.1549 42.8235 20.763 41.7035 18.5707C40.5835 16.3783 39.0418 14.4286 37.1667 12.8334L34.2083 15.7917C35.8863 17.1568 37.2393 18.8784 38.169 20.8315C39.0988 22.7846 39.5819 24.9203 39.5833 27.0834ZM33.3333 10.4167L25 2.08337V8.33337C20.0272 8.33337 15.2581 10.3088 11.7417 13.8251C8.22544 17.3414 6.25 22.1106 6.25 27.0834C6.25 31.7292 7.95833 35.9792 10.75 39.25L13.7083 36.2917C11.5746 33.6979 10.4107 30.442 10.4167 27.0834C10.4167 19.0417 16.9583 12.5 25 12.5V18.75L33.3333 10.4167Z" fill="white"/>
</svg>
