<svg width="25" height="25" viewBox="0 0 25 25" fill="none" xmlns="http://www.w3.org/2000/svg">
<g clip-path="url(#clip0_2751_24279)">
<path d="M22.9492 8.78906H16.0818C16.1036 8.54816 16.1154 8.30421 16.1154 8.05759C16.1154 3.61462 12.5006 0 8.05759 0C6.64234 0 5.25017 0.372314 4.03156 1.07651C3.7981 1.21136 3.71819 1.51005 3.85303 1.74351C3.98808 1.97716 4.28677 2.05688 4.52023 1.92204C5.59044 1.30348 6.81362 0.976562 8.05759 0.976562C11.9621 0.976562 15.1388 4.15306 15.1388 8.05759C15.1388 11.9621 11.9621 15.1388 8.05759 15.1388C6.42319 15.1388 4.88777 14.5973 3.61729 13.5731C3.48988 13.4705 3.32108 13.4398 3.16734 13.4869L1.8713 13.8258L2.37904 12.71C2.45209 12.5498 2.43301 12.3629 2.32944 12.2204C1.44444 11.0048 0.976562 9.56535 0.976562 8.05759C0.976562 6.81038 1.3052 5.58414 1.92699 4.51164C2.06223 4.27818 1.98269 3.97949 1.74942 3.84426C1.51615 3.70903 1.21746 3.78838 1.08204 4.02184C0.374222 5.24292 0 6.63853 0 8.05759C0 9.67674 0.474358 11.2272 1.37463 12.5595L0.557137 14.3557C0.478935 14.5271 0.506592 14.7282 0.627899 14.8724C0.749207 15.0166 0.942612 15.078 1.12495 15.0303L3.20148 14.4875C4.59347 15.539 6.30798 16.1154 8.05759 16.1154C8.43849 16.1154 8.8129 16.0881 9.17969 16.0368V20.3125C9.17969 21.4432 10.0996 22.3633 11.2303 22.3633H18.1362L21.224 24.8896C21.3129 24.9624 21.4226 24.9998 21.5332 24.9998C21.6043 24.9998 21.6757 24.9844 21.7422 24.9529C21.9128 24.872 22.0215 24.7004 22.0215 24.5115V22.3633H22.9492C24.0801 22.3633 25 21.4432 25 20.3125V10.8398C25 9.70898 24.0801 8.78906 22.9492 8.78906ZM24.0234 20.3125C24.0234 20.9047 23.5416 21.3867 22.9492 21.3867H21.5332C21.2635 21.3867 21.0449 21.6053 21.0449 21.875V23.4812L18.6333 21.508C18.5003 21.3867 18.384 21.3867 18.1225 21.3867H11.2303C10.638 21.3867 10.1562 20.9047 10.1562 20.3125V15.8375C13.0445 15.0576 15.2948 12.7089 15.9325 9.76562H22.9492C23.5416 9.76562 24.0234 10.2474 24.0234 10.8398V20.3125Z" fill="#043356"/>
<path d="M19.5184 17.0217C19.684 16.9436 19.7988 16.7756 19.7988 16.5803C19.7988 16.3108 19.5802 16.092 19.3105 16.092H19.1106L17.5359 12.5031C17.4579 12.3256 17.2824 12.2109 17.0886 12.2109C16.8948 12.2109 16.7194 12.3256 16.6415 12.5031L15.0668 16.092H14.8669C14.5972 16.092 14.3786 16.3108 14.3786 16.5803C14.3786 16.7756 14.4935 16.9436 14.659 17.0217L14.0725 18.3583C13.9642 18.6053 14.0765 18.8933 14.3233 19.0017C14.5703 19.11 14.8583 18.9977 14.9667 18.7507L15.7048 17.0686H18.4726L19.2107 18.7507C19.291 18.9338 19.4701 19.0429 19.6582 19.0429C19.7236 19.0429 19.7902 19.0297 19.8541 19.0017C20.1009 18.8933 20.2134 18.6053 20.1049 18.3583L19.5184 17.0217ZM16.1332 16.092L17.0886 13.9146L18.044 16.092H16.1332Z" fill="#043356"/>
<path d="M2.70508 3.19336C2.83344 3.19336 2.95933 3.1411 3.05031 3.05031C3.1411 2.95952 3.19336 2.83363 3.19336 2.70508C3.19336 2.57671 3.1411 2.45083 3.05031 2.35985C2.95933 2.26906 2.83344 2.2168 2.70508 2.2168C2.57614 2.2168 2.45064 2.26906 2.35985 2.35985C2.26906 2.45083 2.2168 2.57671 2.2168 2.70508C2.2168 2.83363 2.26906 2.95952 2.35985 3.05031C2.45064 3.14129 2.57652 3.19336 2.70508 3.19336Z" fill="#043356"/>
<path d="M5.14429 11.0293C4.90777 11.159 4.82118 11.4557 4.95088 11.6923C5.03976 11.8542 5.20704 11.9459 5.37946 11.9459C5.45881 11.9459 5.5393 11.9265 5.61388 11.8857C6.70278 11.2885 7.54049 10.3596 8.03049 9.26421C8.52067 10.3596 9.35819 11.2885 10.4471 11.8857C10.5217 11.9265 10.6022 11.9459 10.6815 11.9459C10.8539 11.9459 11.0212 11.8542 11.1101 11.6923C11.2398 11.4557 11.1532 11.159 10.9167 11.0293C9.642 10.3302 8.78408 9.08091 8.57103 7.66928H10.7389C11.0086 7.66928 11.2272 7.4507 11.2272 7.181C11.2272 6.9113 11.0086 6.69272 10.7389 6.69272H8.51877V4.65796C8.51877 4.38826 8.30018 4.16968 8.03049 4.16968C7.76079 4.16968 7.5422 4.38826 7.5422 4.65796V6.69272H5.77829C5.50859 6.69272 5.29001 6.9113 5.29001 7.181C5.29001 7.4507 5.50859 7.66928 5.77829 7.66928H7.48994C7.27689 9.08091 6.41897 10.3304 5.14429 11.0293Z" fill="#043356"/>
</g>
<defs>
<clipPath id="clip0_2751_24279">
<rect width="25" height="25" fill="white"/>
</clipPath>
</defs>
</svg>
