<svg width="51" height="51" viewBox="0 0 51 51" fill="none" xmlns="http://www.w3.org/2000/svg">
<g clip-path="url(#clip0_2758_26695)">
<path d="M16.9854 31.7092C9.47232 23.8784 9.46634 11.1862 16.9684 3.3479C15.0758 4.32656 13.3586 5.61252 11.8868 7.15298L11.8854 7.15398C4.36634 14.9907 4.36634 27.6969 11.8854 35.5342L25.502 49.725L29.8868 45.155L16.9854 31.7092Z" fill="#D4E1F4"/>
<path d="M25.5023 30.7315C19.1647 30.7315 14.0273 25.5937 14.0273 19.2565C14.0273 12.9189 19.1647 7.78149 25.5023 7.78149C31.8395 7.78149 36.9773 12.9189 36.9773 19.2565C36.9773 25.5937 31.8395 30.7315 25.5023 30.7315ZM25.5023 10.3315C20.5732 10.3315 16.5773 14.3273 16.5773 19.2565C16.5773 24.1857 20.5732 28.1815 25.5023 28.1815C30.4315 28.1815 34.4273 24.1857 34.4273 19.2565C34.4273 14.3273 30.4315 10.3315 25.5023 10.3315Z" fill="#1AC4A2"/>
<path d="M25.5036 51C25.156 51 24.8238 50.8586 24.5833 50.6075L10.9671 36.4167C7.10131 32.3875 4.97266 27.035 4.97266 21.3438C4.97266 15.6531 7.10181 10.3001 10.9671 6.27141L10.9741 6.26394C14.8529 2.22428 20.0127 0 25.5036 0C30.9946 0 36.1544 2.22478 40.0332 6.26443L40.0396 6.27141C43.9055 10.3001 46.0341 15.6531 46.0341 21.3438C46.0341 27.035 43.905 32.3875 40.0396 36.4167L26.4235 50.6075C26.183 50.8581 25.8508 51 25.5036 51ZM12.8015 8.04246C5.76654 15.3807 5.76854 27.3154 12.8074 34.6516L25.5036 47.8832L38.1998 34.6511C45.2382 27.3154 45.2397 15.3802 38.2048 8.04196L38.1984 8.03549C34.8047 4.49786 30.2958 2.55 25.5036 2.55C20.7109 2.55 16.2026 4.49786 12.8084 8.03549L12.8015 8.04246Z" fill="#1AC4A2"/>
</g>
<defs>
<clipPath id="clip0_2758_26695">
<rect width="51" height="51" fill="white"/>
</clipPath>
</defs>
</svg>
