<svg width="51" height="51" viewBox="0 0 51 51" fill="none" xmlns="http://www.w3.org/2000/svg">
<path d="M17.1859 49.4094V9.14476C17.1859 6.88412 19.0183 5.05181 21.2784 5.05181H38.9018C38.7608 2.90024 36.9748 1.2273 34.8188 1.22681H16.1784C13.9183 1.22681 12.0859 3.05912 12.0859 5.31976V45.5844C12.0859 47.8445 13.9183 49.6768 16.1784 49.6768H17.1954C17.1899 49.5882 17.1859 49.499 17.1859 49.4094Z" fill="#D4E1F4"/>
<path d="M27.9959 46.2651H23.0055C22.3012 46.2651 21.7305 45.6943 21.7305 44.9901C21.7305 44.2858 22.3012 43.7151 23.0055 43.7151H27.9959C28.7001 43.7151 29.2709 44.2858 29.2709 44.9901C29.2709 45.6943 28.7001 46.2651 27.9959 46.2651Z" fill="#1AC4A2"/>
<path d="M40.1609 5.36795C40.1609 2.40308 37.7579 0 34.793 0H16.2039C13.239 0 10.8359 2.40308 10.8359 5.36795V45.632C10.8359 48.5969 13.239 51 16.2039 51H34.793C37.7579 51 40.1609 48.5969 40.1609 45.632V5.36795ZM13.3859 9.18H37.6109V39.015H13.3859V9.18ZM16.178 2.55H34.8189C36.3419 2.53107 37.592 3.75129 37.6109 5.27432V5.31964V6.63H13.3859V5.31964C13.38 3.79611 14.6096 2.55598 16.1332 2.55H16.178ZM34.8189 48.45H16.178C14.6246 48.45 13.3859 47.1376 13.3859 45.5842V41.565H37.6109V45.5842C37.6109 47.1376 36.3723 48.45 34.8189 48.45Z" fill="#1AC4A2"/>
</svg>
