<svg width="18" height="18" viewBox="0 0 18 18" fill="none" xmlns="http://www.w3.org/2000/svg">
<path d="M17.9544 15.4239C17.8752 15.0438 17.5028 14.7998 17.1227 14.8789C16.7425 14.9581 16.4985 15.3304 16.5776 15.7106C16.6232 15.9295 16.569 16.154 16.4287 16.3265C16.3475 16.4263 16.1664 16.5939 15.8663 16.5939H12.6914C12.3031 16.5939 11.9883 16.9086 11.9883 17.297C11.9883 17.6853 12.3031 18.0001 12.6914 18.0001H15.8663C16.5106 18.0001 17.1133 17.7135 17.5197 17.2137C17.9282 16.7114 18.0866 16.0591 17.9544 15.4239Z" fill="#696969"/>
<path d="M9.71386 9.58954C12.0239 9.8023 14.1252 11.0404 15.4339 12.9922C15.6501 13.3148 16.0869 13.401 16.4094 13.1847C16.732 12.9684 16.8181 12.5316 16.6019 12.2091C15.4481 10.4883 13.7727 9.23734 11.8624 8.60868C13.0266 7.73578 13.7812 6.345 13.7812 4.78125C13.7812 2.14485 11.6363 0 8.99998 0C6.36361 0 4.21873 2.14485 4.21873 4.78125C4.21873 6.34602 4.97431 7.73761 6.13977 8.61036C5.07204 8.96186 4.07009 9.5085 3.19323 10.2297C1.58546 11.5522 0.467599 13.3969 0.0456192 15.4238C-0.0866385 16.059 0.0718106 16.7113 0.480256 17.2136C0.886662 17.7134 1.48934 18 2.13372 18H5.20311C5.59144 18 5.90623 17.6852 5.90623 17.2969C5.90623 16.9085 5.59144 16.5938 5.20311 16.5938H2.13365C1.83349 16.5938 1.65243 16.4262 1.57119 16.3264C1.43095 16.1539 1.37667 15.9294 1.42227 15.7104C2.11077 12.4034 4.90203 9.93772 8.21399 9.5973L6.87169 15.7043C6.82026 15.9385 6.8917 16.1828 7.06125 16.3524L8.46757 17.7589C8.59941 17.8908 8.77828 17.9648 8.96482 17.9648C9.15133 17.9648 9.33017 17.8907 9.46204 17.7589L10.8682 16.3524C11.0378 16.1828 11.1092 15.9385 11.0577 15.7043L9.71386 9.58954ZM5.62498 4.78125C5.62498 2.92025 7.13898 1.40625 8.99998 1.40625C10.861 1.40625 12.375 2.92025 12.375 4.78125C12.375 6.58607 10.951 8.06446 9.1675 8.1521C9.11174 8.15108 9.05591 8.15041 8.99998 8.15041C8.9451 8.15041 8.89029 8.15122 8.83548 8.15221C7.0506 8.06611 5.62498 6.58709 5.62498 4.78125ZM8.96479 16.2673L8.32786 15.6302L8.96479 12.7325L9.60164 15.6303L8.96479 16.2673Z" fill="#696969"/>
</svg>
