<svg width="336" height="280" viewBox="0 0 336 280" fill="none" xmlns="http://www.w3.org/2000/svg">
<path d="M110.336 247.249C110.336 247.249 137.747 256.328 152.762 261.827C154.945 262.613 157.389 263.224 160.095 263.835C166.817 265.232 174.761 265.93 181.832 266.367C182.793 266.454 183.666 266.454 184.539 266.542C193.443 266.978 200.427 266.891 200.427 266.891L200.863 255.28L164.897 221.845L120.113 201.417C120.113 201.417 112.954 207.616 109.375 224.464C106.582 237.384 110.336 247.249 110.336 247.249Z" fill="#F1979B"/>
<path d="M155.73 216.171L175.808 261.129L179.3 264.185L181.832 266.367L231.766 309.579L234.647 308.794L285.629 292.644L155.73 216.171Z" fill="#F1979B"/>
<path d="M147.089 259.82C158.438 265.145 174.762 265.931 181.833 266.367L231.768 309.58L234.648 308.794L184.54 266.455L181.746 264.098C181.746 264.098 180.786 264.098 179.214 264.098C174.238 264.01 153.462 259.82 148.311 257.201C147.263 256.677 144.732 257.55 147.089 259.82Z" fill="#F5D1D3"/>
<path d="M154.771 216.607C154.771 216.607 161.056 220.972 164.374 227.869C167.691 234.765 176.945 241.575 182.008 241.662C176.072 243.932 165.509 234.067 165.509 234.067L160.096 222.806L154.771 216.607Z" fill="#EE7E80"/>
<path d="M191.436 167.11C195.364 168.158 199.293 169.293 203.221 170.34C214.133 158.992 218.498 142.929 214.832 127.564C210.903 126.517 206.975 125.382 203.047 124.334C199.206 138.651 195.277 152.881 191.436 167.11Z" fill="#CAD0D2"/>
<path d="M196.326 149.127C198.596 140.921 200.778 132.627 203.048 124.421C206.976 125.469 210.905 126.604 214.833 127.651C216.928 136.468 216.404 145.547 213.436 153.841C207.762 152.182 202.088 150.611 196.326 149.127Z" fill="#E1E3E7"/>
<path d="M108.153 270.209C107.368 272.391 107.019 274.836 107.892 275.185L137.049 285.661C138.009 286.01 139.93 284.089 140.715 281.994L180.872 169.817C181.658 167.634 181.483 165.626 180.523 165.277L151.366 154.801C150.405 154.452 149.009 155.936 148.223 158.119L108.153 270.209Z" fill="#E1E3E7"/>
<path d="M107.37 272.653L149.535 154.278C149.884 153.317 150.932 152.794 151.892 153.143L181.049 163.618C181.835 163.88 182.272 164.666 182.184 165.452L158.527 156.897C157.566 156.547 156.519 157.071 156.17 158.031C156.17 158.031 113.743 277.018 113.743 277.193L108.156 275.185C107.108 274.923 107.021 273.614 107.37 272.653Z" fill="#F3F4F8"/>
<path d="M174.153 166.325C174.502 165.364 173.978 164.317 173.018 163.968L149.098 155.325L149.448 154.278C149.797 153.317 150.844 152.794 151.805 153.143L180.962 163.618C181.922 163.968 182.359 165.015 182.097 165.975L139.234 284.526C138.885 285.486 137.837 286.01 136.877 285.661L131.639 283.74L174.153 166.325Z" fill="#CAD0D2"/>
<path d="M182.094 168.594C186.633 169.816 191.26 171.126 195.8 172.348C208.458 159.253 213.521 140.571 209.244 122.85C204.704 121.628 200.077 120.318 195.538 119.096C191.086 135.595 186.633 152.095 182.094 168.594Z" fill="#101C5D"/>
<path d="M182.094 168.594C186.633 169.816 191.26 171.126 195.8 172.348C208.458 159.253 213.521 140.571 209.244 122.85C204.704 121.628 200.077 120.318 195.538 119.096C191.086 135.595 186.633 152.095 182.094 168.594Z" fill="#101C5D"/>
<path d="M134.43 159.952C138.969 161.174 182.88 172.698 187.419 173.92C200.078 160.825 207.673 138.215 203.482 120.494C198.943 119.271 155.381 103.471 150.842 102.161C146.39 118.66 138.882 143.453 134.43 159.952Z" fill="#0E3E68"/>
<path d="M197.547 159.428C194.753 164.928 191.349 169.904 187.42 173.92C182.881 172.698 138.97 161.174 134.431 159.952C135.74 155.151 137.311 149.738 138.97 143.977C159.834 149.476 186.373 156.46 197.547 159.428Z" fill="#0C3559"/>
<path d="M150.845 102.161C155.384 103.383 198.946 119.184 203.485 120.494C203.922 122.327 204.183 124.247 204.445 126.168C193.184 122.589 158.178 110.716 149.273 107.923C149.797 105.915 150.408 103.994 150.845 102.161Z" fill="#0C3559"/>
<path d="M197.549 159.428C186.375 156.46 159.836 149.477 138.885 143.977C142.289 132.017 146.218 118.835 149.273 107.923C158.177 110.629 193.184 122.589 204.445 126.168C205.493 136.993 202.787 149.04 197.549 159.428Z" fill="#0E3E68"/>
<path d="M48.5294 105.303C54.3783 84.0028 61.7113 64.0989 70.1792 46.3774C83.623 67.6781 113.042 88.1057 150.93 102.161C151.541 103.557 150.58 117.089 146.477 132.191C142.374 147.206 136.613 158.904 135.391 159.777V159.864C135.303 159.864 135.303 159.864 135.216 159.864C95.4955 152.619 59.7035 155.674 37.3552 167.11C39.0139 147.555 42.6804 126.691 48.5294 105.303Z" fill="#E1E3E7"/>
<path d="M49.4886 101.811C50.4488 98.3193 51.4964 94.8274 52.544 91.4227C56.0359 81.1216 60.6627 71.6935 66.1624 63.2256C81.7014 78.0662 112.43 94.5655 150.754 108.184C150.317 113.596 149.008 122.501 146.389 132.191C145.254 136.556 143.857 140.571 142.635 144.151C102.129 134.984 66.7735 132.627 45.5602 137.079C45.211 125.643 46.5204 113.771 49.4886 101.811Z" fill="#F3F4F8"/>
<path d="M87.553 84.1772C87.553 84.1772 130.416 109.668 158.002 117.001C177.993 122.326 195.715 128.175 195.715 128.175L195.453 131.056C195.453 131.056 151.63 120.144 132.424 112.811C111.909 105.041 86.4181 92.2086 86.4181 92.2086L87.553 84.1772Z" fill="white"/>
<path d="M74.3684 111.763C65.1149 145.635 48.0918 170.427 36.132 167.197C24.2596 163.967 22.0771 133.85 31.3307 99.9782C40.5842 66.1067 57.6073 41.3142 69.567 44.5442C81.4395 47.7742 83.622 77.8919 74.3684 111.763Z" fill="#101C5D"/>
<path d="M68.7819 110.279C59.5284 144.151 43.4656 169.205 32.8153 166.325C22.165 163.356 20.9428 133.588 30.1964 99.7164C39.4499 65.8449 55.5127 40.7905 66.163 43.6713C76.9006 46.5521 78.0355 76.4079 68.7819 110.279Z" fill="#101C5D"/>
<path d="M68.2595 110.105C59.3552 143.016 43.6416 167.372 33.3405 164.491C22.952 161.61 21.8172 132.715 30.8088 99.8034C39.8005 66.8922 55.4268 42.5361 65.7279 45.4169C76.0291 48.2104 77.2512 77.1933 68.2595 110.105Z" fill="#CAD0D2"/>
<path d="M59.3536 74.5745C61.4487 84.6137 65.4644 94.391 72.0117 102.248C69.742 101.288 67.8214 99.5416 66.1628 97.7084C60.2265 91.161 56.2108 83.1296 53.4173 74.7491C50.6238 66.3685 49.1397 57.6387 47.6557 48.9962C47.5684 48.5597 55.9489 44.8059 56.8219 44.6313C57.6949 46.29 57.0838 49.6073 57.0838 51.5279C57.0838 54.1468 57.1711 56.7657 57.3457 59.3847C57.6949 64.5352 58.306 69.5985 59.3536 74.5745Z" fill="white"/>
<path d="M23.2989 146.246C23.4735 137.516 24.0846 128.787 24.9576 120.144C31.8541 116.478 39.7982 114.906 47.655 114.644C55.5118 114.382 63.2813 115.343 71.0508 116.303C70.8762 116.303 68.6064 125.12 67.0351 125.993C64.3289 127.564 59.6148 127.652 56.6467 128.525C48.7899 130.707 41.0204 133.501 34.0366 137.778C30.1082 140.223 26.4416 143.016 23.2989 146.246Z" fill="#BDBEBE"/>
<path d="M94.0106 133.763L101.605 103.383L44.4255 91.9473L38.2273 116.827L94.0106 133.763Z" fill="#FF5821"/>
<path d="M94.0098 133.763L38.2266 116.827L40.409 107.748L96.8906 122.239L94.0098 133.763Z" fill="#E13354"/>
<path d="M101.605 103.383L96.8914 122.24L40.4098 107.748L44.4255 91.9473L101.605 103.383Z" fill="#FF3A5A"/>
<path d="M38.2284 116.827C39.7125 117.176 42.3314 111.938 44.0774 105.042C45.8233 98.1452 45.9106 92.2962 44.4266 91.8598C42.9425 91.5106 40.3236 96.7484 38.5776 103.645C36.8316 110.541 36.6571 116.478 38.2284 116.827Z" fill="#FFAF21"/>
<path d="M39.8865 109.843C40.5849 110.018 41.7197 107.748 42.4181 104.692C43.2038 101.724 43.2038 99.1054 42.5927 98.9308C41.8943 98.7562 40.7595 101.026 40.0611 104.081C39.3627 107.137 39.2754 109.668 39.8865 109.843Z" fill="#0E3E68"/>
<path d="M45.6487 95.6133L100.035 108.533L99.0749 113.073L45.2122 100.327L45.6487 95.6133Z" fill="#FF5773"/>
<path d="M116.532 197.402C116.882 196.355 117.405 195.394 118.016 194.609C118.191 194.434 118.366 194.172 118.54 193.998C118.453 194.259 118.366 194.434 118.191 194.696C115.572 201.592 121.159 203.251 126.135 204.822C132.333 206.743 138.357 209.187 144.206 212.068C145.428 212.679 146.737 213.29 148.047 213.64C147.785 213.727 147.523 213.727 147.261 213.727C145.603 213.727 143.944 213.028 142.373 212.417C136.611 210.06 130.762 208.14 124.738 206.656C119.85 205.434 114.437 204.124 116.532 197.402Z" fill="#EE7E80"/>
<path d="M126.224 204.823C121.161 203.251 115.661 201.506 118.28 194.696C118.367 194.434 118.455 194.26 118.629 193.998C119.153 193.387 119.677 192.776 120.201 192.252C120.462 191.99 120.812 191.641 121.248 191.554C121.597 191.466 121.946 191.641 122.296 191.728C131.287 195.045 139.493 200.196 147.612 205.347C148.921 206.22 150.406 207.354 151.104 208.751C151.453 209.45 151.54 210.235 151.366 211.021C151.017 212.418 149.62 213.291 148.223 213.553C146.914 213.291 145.604 212.592 144.382 211.981C138.446 209.188 132.422 206.743 126.224 204.823Z" fill="#F1979B"/>
<path d="M146.477 210.933L144.556 210.235C143.945 209.973 143.596 209.274 143.77 208.663C143.945 208.14 144.12 207.616 144.12 207.267C144.207 206.568 144.993 206.481 144.993 206.481L148.223 207.965C148.921 208.314 149.357 209.1 149.27 209.886C149.183 210.235 149.008 210.497 148.834 210.759C148.572 211.108 148.135 211.195 147.786 211.195L146.477 210.933Z" fill="#F5D1D3"/>
<path d="M109.985 215.386C111.12 216.783 112.954 217.306 114.699 217.656C124.477 219.751 134.254 221.584 144.032 223.33C145.166 223.504 146.389 223.679 147.523 223.417C147.436 223.504 147.436 223.592 147.349 223.592C146.214 224.552 144.643 224.377 143.246 224.29C133.992 223.243 124.739 222.108 115.572 220.798C113.914 220.536 112.168 220.274 111.033 218.965C110.073 217.917 109.636 216.259 109.549 214.6C109.636 214.862 109.811 215.124 109.985 215.386Z" fill="#EE7E80"/>
<path d="M144.032 223.329C134.255 221.584 124.477 219.663 114.7 217.655C112.954 217.306 111.121 216.869 109.986 215.385C109.811 215.123 109.637 214.862 109.549 214.6C109.462 212.679 109.986 210.584 110.772 209.275C112.256 206.917 114.787 206.656 117.232 206.83C125.699 207.354 134.167 211.02 142.024 214.163C143.945 214.949 146.04 215.735 147.349 217.481C148.659 219.139 148.833 221.933 147.437 223.329C146.389 223.679 145.167 223.504 144.032 223.329Z" fill="#F1979B"/>
<path d="M143.247 216.084L139.231 214.688C138.533 214.426 137.747 214.775 137.485 215.561C137.136 216.521 136.612 217.743 136.263 218.354C135.826 219.14 136.176 220.187 137.136 220.449L142.374 221.846C143.683 222.195 145.167 221.671 145.866 220.537C146.128 220.1 146.215 219.489 146.215 218.965C146.215 218.267 145.778 217.656 145.255 217.306L143.247 216.084Z" fill="#F5D1D3"/>
<path d="M108.15 222.369C108.15 223.679 108.412 225.163 108.5 226.647C108.587 227.607 108.762 228.48 109.285 229.266C109.809 229.964 110.595 230.401 111.293 230.75C115.92 232.932 121.245 233.019 126.308 232.758C129.626 232.583 132.943 232.234 136.173 231.797C137.57 231.623 139.054 231.361 140.363 230.924C140.014 231.623 139.578 232.234 139.054 232.758C137.308 234.242 134.951 234.678 132.681 235.027C129.713 235.464 126.658 235.726 123.689 235.9C119.063 236.162 114.174 236.075 109.984 234.067C109.285 233.718 108.587 233.369 108.15 232.67C107.627 231.972 107.539 231.099 107.452 230.313C107.19 226.996 106.754 224.028 108.15 222.369Z" fill="#EE7E80"/>
<path d="M126.397 232.757C121.334 233.019 116.009 232.932 111.382 230.75C110.596 230.4 109.811 229.964 109.374 229.266C108.85 228.48 108.676 227.52 108.589 226.647C108.414 225.163 108.239 223.679 108.239 222.369C109.025 221.409 110.509 220.885 112.866 220.972C121.072 221.234 129.365 222.456 137.222 224.988C138.357 225.337 139.492 225.774 140.278 226.647C141.325 227.782 141.238 229.527 140.627 230.924C139.317 231.361 137.833 231.623 136.437 231.797C133.032 232.234 129.715 232.496 126.397 232.757Z" fill="#F1979B"/>
<path d="M134.339 225.25L130.062 224.988C129.276 224.988 128.665 225.512 128.578 226.297C128.491 227.345 128.403 228.654 128.229 229.265C127.967 230.138 128.665 231.011 129.625 231.011L135.038 230.924C136.435 230.924 137.657 229.964 138.093 228.654C138.268 228.13 138.093 227.519 138.006 226.996C137.831 226.297 137.22 225.861 136.609 225.686L134.339 225.25Z" fill="#F5D1D3"/>
<path d="M109.811 237.908C109.724 239.043 109.811 240.178 110.073 241.226C110.51 242.884 111.383 244.63 112.867 245.241C114.176 245.765 115.66 245.329 116.97 244.892C122.557 243.233 128.406 243.67 134.08 242.448C135.215 242.186 136.262 241.924 137.223 241.138C136.961 241.662 136.612 242.186 136.175 242.622C135.302 243.408 134.167 243.757 133.12 244.106C127.533 245.678 121.684 245.59 116.184 247.598C114.874 248.035 113.478 248.646 112.081 248.209C110.597 247.686 109.637 246.027 109.113 244.368C108.414 242.098 108.414 239.392 109.811 237.908Z" fill="#EE7E80"/>
<path d="M134.081 242.448C128.407 243.67 122.558 243.321 116.971 244.892C115.661 245.241 114.177 245.765 112.868 245.241C111.471 244.63 110.511 242.972 110.074 241.226C109.813 240.178 109.725 239.043 109.813 237.908C109.987 237.734 110.074 237.646 110.249 237.472C110.947 236.948 111.82 236.861 112.693 236.773C118.63 236.075 124.653 235.726 130.677 235.813C132.423 235.813 134.954 235.377 136.438 236.773C137.66 237.996 137.835 239.742 137.224 241.138C136.264 241.924 135.216 242.186 134.081 242.448Z" fill="#F1979B"/>
<path d="M131.899 237.21L128.581 237.821C127.97 237.908 127.621 238.519 127.708 239.043C127.796 239.829 127.97 240.876 127.97 241.4C127.97 242.099 128.669 242.71 129.367 242.535L133.47 241.488C134.518 241.226 135.303 240.353 135.391 239.218C135.391 238.781 135.216 238.345 135.041 237.996C134.78 237.559 134.256 237.21 133.732 237.21H131.899Z" fill="#F5D1D3"/>
<path d="M233.949 268.287C233.949 268.287 190.824 227.257 185.15 216.083C179.388 204.647 174.761 200.457 164.897 196.79C155.032 193.037 136.525 181.862 136.263 188.584C136.088 195.481 144.644 199.497 150.667 202.727C158.524 209.623 162.889 225.249 162.889 225.249C162.889 225.249 175.285 234.328 179.563 237.035C192.745 245.59 233.949 268.287 233.949 268.287Z" fill="#F1979B"/>
<path d="M147.001 191.554C146.913 191.641 146.826 191.728 146.739 191.728C146.651 191.728 146.477 191.728 146.39 191.728C143.858 190.943 141.414 189.72 139.144 188.236C139.58 187.887 139.668 187.189 140.191 187.014C140.453 186.927 140.803 186.927 141.064 187.014C143.334 187.625 146.128 188.498 147.961 189.982C147.786 190.593 147.35 191.117 147.001 191.554Z" fill="#F5D1D3"/>
<path d="M26.5294 32.9338C25.6564 32.1481 24.6089 31.4497 23.474 31.1878C22.3391 30.9259 20.9423 31.2751 20.3313 32.3227C19.6329 33.3703 19.8948 34.767 20.4186 35.8146C21.5534 38.0844 23.7359 39.6557 25.831 41.1398C28.6246 43.1476 32.0292 46.3776 35.1719 47.4252C34.037 42.2746 30.5451 36.4257 26.5294 32.9338Z" fill="#E0DCD3"/>
<path d="M65.1159 17.1328C64.7667 15.998 64.2429 14.8631 63.3699 14.0774C62.497 13.2917 61.1875 12.8552 60.1399 13.379C59.005 13.9028 58.5685 15.2123 58.394 16.4344C58.1321 18.9661 59.1796 21.4977 60.2272 23.8548C61.624 26.9975 62.7588 31.537 64.9413 34.0686C66.6872 29.0053 66.6872 22.1961 65.1159 17.1328Z" fill="#E0DCD3"/>
<path d="M16.4041 187.626C15.6184 188.499 14.8328 189.459 14.4836 190.594C14.2217 191.729 14.4836 193.125 15.3566 193.824C16.3168 194.522 17.7136 194.435 18.8485 193.911C21.2055 192.951 22.9515 190.856 24.5228 188.848C26.7053 186.142 30.1099 182.999 31.332 179.943C26.0942 180.729 20.0706 183.784 16.4041 187.626Z" fill="#E0DCD3"/>
<path d="M5.75516 93.0827C4.62029 92.9954 3.31083 93.0827 2.26325 93.6065C1.21568 94.1303 0.342705 95.2652 0.5173 96.4C0.604597 97.6222 1.65215 98.5825 2.78702 99.1063C5.05676 100.241 7.76299 100.154 10.2946 99.9792C13.6992 99.8046 18.326 100.328 21.4688 99.1936C17.3658 95.7889 11.0803 93.3446 5.75516 93.0827Z" fill="#E0DCD3"/>
<path d="M5.40283 142.143C4.79174 142.667 4.09337 143.191 3.83148 143.977C3.48229 144.762 3.56958 145.723 4.09336 146.246C4.70445 146.858 5.66473 146.858 6.45041 146.683C8.19636 146.246 9.59313 145.024 10.8153 143.802C12.5612 142.143 15.2675 140.397 16.4023 138.39C12.8231 138.477 8.37095 139.961 5.40283 142.143Z" fill="#E0DCD3"/>
<path d="M14.6571 64.7976C13.9587 64.5357 13.2604 64.4484 12.562 64.5357C11.8636 64.7103 11.1652 65.234 11.0779 65.9324C10.9906 66.6308 11.4271 67.4165 11.9509 67.853C13.173 68.9006 14.7444 69.2497 16.3158 69.5989C18.4109 70.0354 21.0299 71.083 23.125 70.9084C21.1172 68.2895 17.7125 65.7578 14.6571 64.7976Z" fill="#E0DCD3"/>
<path d="M199.555 188.586L212.911 233.02L246.434 201.07L199.555 188.586Z" fill="#FF5773"/>
<path d="M206.886 195.395L218.235 235.203L248.527 207.093L206.886 195.395Z" stroke="#111224" stroke-width="1.3913" stroke-miterlimit="10"/>
<path d="M255.948 85.4L258.305 39.0449L216.053 57.9012L255.948 85.4Z" fill="#FF5773"/>
<path d="M251.41 76.4953L253.941 35.1162L216.054 51.4409L251.41 76.4953Z" stroke="#111224" stroke-width="1.3913" stroke-miterlimit="10"/>
<path d="M281.527 122.763C287.638 132.977 284.408 146.246 274.194 152.357C264.067 158.468 250.798 155.238 244.687 145.024C238.576 134.81 241.806 121.541 252.02 115.43C262.234 109.232 275.416 112.55 281.527 122.763Z" fill="#6A97FB"/>
<path d="M307.977 125.382C308.588 126.343 308.239 127.652 307.279 128.176C306.319 128.787 305.096 128.438 304.485 127.477C303.874 126.517 304.223 125.208 305.184 124.684C306.144 124.073 307.366 124.422 307.977 125.382Z" fill="#101C5D"/>
<path d="M303.876 118.573C304.487 119.533 304.138 120.843 303.177 121.367C302.217 121.978 300.995 121.629 300.384 120.668C299.773 119.708 300.122 118.399 301.082 117.875C302.042 117.264 303.265 117.613 303.876 118.573Z" fill="#101C5D"/>
<path d="M299.774 111.764C300.385 112.724 300.036 114.034 299.076 114.557C298.115 115.168 296.893 114.819 296.282 113.859C295.671 112.899 296.02 111.589 296.981 111.065C297.941 110.454 299.163 110.716 299.774 111.764Z" fill="#101C5D"/>
<path d="M295.669 104.867C296.28 105.827 295.931 107.137 294.97 107.66C294.01 108.272 292.788 107.922 292.177 106.962C291.566 106.002 291.915 104.692 292.875 104.169C293.835 103.645 295.058 103.907 295.669 104.867Z" fill="#101C5D"/>
<path d="M291.567 98.0578C292.178 99.0181 291.829 100.328 290.869 100.851C289.908 101.462 288.686 101.113 288.075 100.153C287.464 99.1927 287.813 97.8832 288.774 97.3595C289.734 96.8357 290.956 97.0976 291.567 98.0578Z" fill="#101C5D"/>
<path d="M301.606 129.223C302.217 130.183 301.868 131.492 300.908 132.016C299.947 132.627 298.725 132.278 298.114 131.318C297.503 130.357 297.852 129.048 298.813 128.524C299.773 127.913 300.995 128.262 301.606 129.223Z" fill="#101C5D"/>
<path d="M297.501 122.415C298.112 123.375 297.763 124.684 296.802 125.208C295.842 125.819 294.62 125.47 294.009 124.51C293.398 123.549 293.747 122.24 294.707 121.716C295.667 121.105 296.89 121.454 297.501 122.415Z" fill="#101C5D"/>
<path d="M293.399 115.605C294.01 116.566 293.661 117.875 292.701 118.399C291.74 119.01 290.518 118.661 289.907 117.701C289.296 116.74 289.645 115.431 290.606 114.907C291.566 114.296 292.788 114.645 293.399 115.605Z" fill="#101C5D"/>
<path d="M289.298 108.795C289.909 109.756 289.559 111.065 288.599 111.589C287.639 112.2 286.417 111.851 285.806 110.891C285.195 109.93 285.544 108.621 286.504 108.097C287.464 107.486 288.686 107.835 289.298 108.795Z" fill="#101C5D"/>
<path d="M285.192 101.986C285.803 102.946 285.454 104.256 284.494 104.779C283.533 105.391 282.311 105.041 281.7 104.081C281.089 103.121 281.438 101.811 282.399 101.288C283.359 100.676 284.581 100.938 285.192 101.986Z" fill="#101C5D"/>
<path d="M295.231 133.065C295.842 134.025 295.493 135.334 294.533 135.858C293.572 136.469 292.35 136.12 291.739 135.16C291.128 134.2 291.477 132.89 292.438 132.366C293.398 131.843 294.62 132.104 295.231 133.065Z" fill="#101C5D"/>
<path d="M291.13 126.255C291.741 127.215 291.391 128.525 290.431 129.048C289.471 129.659 288.249 129.31 287.638 128.35C287.027 127.39 287.376 126.08 288.336 125.556C289.296 124.945 290.519 125.295 291.13 126.255Z" fill="#101C5D"/>
<path d="M287.028 119.446C287.639 120.406 287.29 121.715 286.33 122.239C285.369 122.85 284.147 122.501 283.536 121.541C282.925 120.581 283.274 119.271 284.234 118.747C285.195 118.136 286.417 118.485 287.028 119.446Z" fill="#101C5D"/>
<path d="M282.923 112.636C283.534 113.596 283.184 114.906 282.224 115.43C281.264 116.041 280.042 115.692 279.431 114.731C278.82 113.771 279.169 112.462 280.129 111.938C281.089 111.327 282.311 111.676 282.923 112.636Z" fill="#101C5D"/>
<path d="M278.821 105.827C279.432 106.787 279.083 108.097 278.123 108.621C277.162 109.232 275.94 108.883 275.329 107.922C274.718 106.962 275.067 105.653 276.027 105.129C276.988 104.518 278.297 104.867 278.821 105.827Z" fill="#101C5D"/>
<path d="M288.86 136.993C289.471 137.953 289.122 139.263 288.162 139.786C287.201 140.397 285.979 140.048 285.368 139.088C284.757 138.128 285.106 136.818 286.067 136.294C287.027 135.683 288.249 135.945 288.86 136.993Z" fill="#101C5D"/>
<path d="M284.758 130.096C285.37 131.057 285.02 132.366 284.06 132.89C283.1 133.501 281.878 133.152 281.267 132.192C280.655 131.231 281.005 129.922 281.965 129.398C282.925 128.874 284.147 129.136 284.758 130.096Z" fill="#101C5D"/>
<path d="M280.653 123.287C281.264 124.248 280.915 125.557 279.955 126.081C278.994 126.692 277.772 126.343 277.161 125.382C276.55 124.422 276.899 123.113 277.859 122.589C278.82 122.065 280.042 122.327 280.653 123.287Z" fill="#101C5D"/>
<path d="M276.551 116.478C277.163 117.438 276.813 118.748 275.853 119.272C274.893 119.883 273.671 119.533 273.06 118.573C272.448 117.613 272.798 116.303 273.758 115.78C274.718 115.169 275.94 115.518 276.551 116.478Z" fill="#101C5D"/>
<path d="M272.446 109.668C273.057 110.629 272.708 111.938 271.748 112.462C270.787 113.073 269.565 112.724 268.954 111.764C268.343 110.803 268.692 109.494 269.652 108.97C270.613 108.359 271.922 108.708 272.446 109.668Z" fill="#101C5D"/>
<path d="M282.489 140.834C283.1 141.794 282.751 143.104 281.791 143.627C280.83 144.239 279.608 143.889 278.997 142.929C278.386 141.969 278.735 140.659 279.695 140.136C280.656 139.524 281.878 139.874 282.489 140.834Z" fill="#101C5D"/>
<path d="M278.383 134.025C278.995 134.985 278.645 136.294 277.685 136.818C276.725 137.429 275.503 137.08 274.892 136.12C274.28 135.159 274.63 133.85 275.59 133.326C276.55 132.715 277.772 132.977 278.383 134.025Z" fill="#101C5D"/>
<path d="M274.282 127.128C274.893 128.088 274.544 129.397 273.584 129.921C272.623 130.532 271.401 130.183 270.79 129.223C270.179 128.263 270.528 126.953 271.488 126.429C272.449 125.905 273.671 126.167 274.282 127.128Z" fill="#101C5D"/>
<path d="M270.176 120.319C270.788 121.279 270.438 122.588 269.478 123.112C268.518 123.723 267.296 123.374 266.685 122.414C266.073 121.453 266.423 120.144 267.383 119.62C268.343 119.096 269.653 119.358 270.176 120.319Z" fill="#101C5D"/>
<path d="M266.075 113.509C266.686 114.469 266.337 115.779 265.377 116.303C264.416 116.914 263.194 116.565 262.583 115.604C261.972 114.644 262.321 113.335 263.281 112.811C264.242 112.2 265.551 112.549 266.075 113.509Z" fill="#101C5D"/>
<path d="M292.875 143.715C291.653 144.151 290.431 144.413 289.208 144.588C289.296 143.977 289.645 143.453 290.169 143.104C291.042 142.493 292.264 142.754 292.875 143.715Z" fill="#101C5D"/>
<path d="M299.337 139.874C299.424 139.961 299.424 140.136 299.512 140.223C298.988 140.572 298.464 141.009 297.853 141.358C297.242 141.707 296.718 142.056 296.107 142.318C296.02 142.231 295.933 142.143 295.845 141.969C295.234 141.009 295.583 139.699 296.544 139.175C297.504 138.652 298.726 138.913 299.337 139.874Z" fill="#101C5D"/>
<path d="M304.66 135.247C303.874 136.295 303.089 137.255 302.129 138.128C301.605 137.168 301.954 135.945 302.914 135.422C303.438 134.985 304.136 134.985 304.66 135.247Z" fill="#101C5D"/>
<path d="M263.805 124.248C264.416 125.208 264.067 126.517 263.107 127.041C262.758 127.303 262.321 127.39 261.972 127.303C261.623 125.994 261.361 124.684 261.186 123.375C262.147 122.938 263.282 123.287 263.805 124.248Z" fill="#101C5D"/>
<path d="M301.343 103.907C300.383 104.518 299.161 104.169 298.55 103.209C298.026 102.248 298.288 101.114 299.073 100.502C300.121 101.288 301.169 102.074 302.129 103.034C301.954 103.296 301.692 103.645 301.343 103.907Z" fill="#101C5D"/>
<path d="M280.391 97.9709C279.431 98.4947 278.296 98.2328 277.685 97.3598C278.907 96.9233 280.129 96.6614 281.352 96.4868C281.352 97.0106 281.002 97.6217 280.391 97.9709Z" fill="#101C5D"/>
<path d="M272.013 137.866C272.536 138.826 272.275 139.961 271.489 140.572C270.441 139.786 269.394 139.001 268.433 138.04C268.608 137.691 268.87 137.342 269.219 137.167C270.179 136.556 271.402 136.905 272.013 137.866Z" fill="#101C5D"/>
<path d="M309.375 117.613C308.415 118.05 307.28 117.788 306.756 116.827C306.145 115.867 306.494 114.558 307.454 114.034C307.804 113.772 308.24 113.685 308.589 113.772C308.939 114.994 309.2 116.304 309.375 117.613Z" fill="#101C5D"/>
<path d="M305.796 107.399C305.884 107.574 305.971 107.748 306.058 107.835C306.146 108.01 306.233 108.185 306.32 108.359C306.582 109.232 306.233 110.192 305.447 110.629C304.487 111.24 303.265 110.891 302.654 109.931C302.043 108.97 302.392 107.661 303.352 107.137C304.138 106.701 305.098 106.788 305.796 107.399Z" fill="#101C5D"/>
<path d="M267.647 105.653C267.123 106.002 266.425 106.002 265.901 105.827C266.687 104.78 267.472 103.819 268.432 102.946C268.956 103.907 268.607 105.129 267.647 105.653Z" fill="#101C5D"/>
<path d="M274.719 99.0181C275.331 99.9784 274.981 101.288 274.021 101.812C273.061 102.423 271.839 102.074 271.228 101.113C271.14 101.026 271.14 100.851 271.053 100.764C271.577 100.415 272.1 99.9784 272.712 99.6292C273.323 99.28 273.846 98.9308 274.458 98.6689C274.632 98.7562 274.632 98.8435 274.719 99.0181Z" fill="#101C5D"/>
<path d="M267.907 131.057C268.518 132.017 268.169 133.327 267.209 133.85C266.423 134.374 265.463 134.2 264.764 133.588C264.677 133.414 264.59 133.239 264.415 133.065C264.328 132.89 264.24 132.715 264.153 132.541C263.891 131.668 264.24 130.795 265.026 130.271C266.074 129.747 267.296 130.097 267.907 131.057Z" fill="#101C5D"/>
<path d="M157.824 58.337L169.871 63.3129L185.323 25.8622C185.41 25.6003 185.585 25.4257 185.846 25.3384C186.108 25.2511 186.283 25.2511 186.545 25.3384L196.933 29.616C197.37 29.7906 197.632 30.3144 197.457 30.8382C197.282 31.2747 196.759 31.5366 196.235 31.362L186.719 27.4336L171.268 64.8843C171.18 65.1462 171.006 65.3208 170.744 65.4081H170.657C170.482 65.4954 170.307 65.4081 170.046 65.4081L157.125 60.0829C156.689 59.9083 156.427 59.3845 156.602 58.8607C156.776 58.4243 157.387 58.1624 157.824 58.337Z" fill="#101C5D"/>
<path d="M280.742 227.084C290.432 227.084 298.289 234.941 298.289 244.718C298.289 254.408 290.432 262.352 280.742 262.352C271.052 262.352 263.195 254.495 263.195 244.718C263.195 235.028 271.052 227.084 280.742 227.084ZM280.742 255.543C286.678 255.543 291.48 250.742 291.48 244.805C291.48 238.869 286.678 234.068 280.742 234.068C274.806 234.068 270.005 238.869 270.005 244.805C270.005 250.654 274.806 255.543 280.742 255.543Z" fill="#BFA689"/>
<path d="M125.703 32.1479C135.393 32.1479 143.25 40.0047 143.25 49.7821C143.25 59.4721 135.393 67.4162 125.703 67.4162C116.013 67.4162 108.156 59.5594 108.156 49.7821C108.156 40.0047 116.013 32.1479 125.703 32.1479ZM125.703 60.5197C131.639 60.5197 136.441 55.7183 136.441 49.7821C136.441 43.8458 131.639 39.0445 125.703 39.0445C119.767 39.0445 114.966 43.8458 114.966 49.7821C114.966 55.7183 119.767 60.5197 125.703 60.5197Z" fill="#BFA689"/>
<path d="M64.8516 240.789C74.5416 240.789 82.3984 248.646 82.3984 258.423C82.3984 268.113 74.5416 276.057 64.8516 276.057C55.1615 276.057 47.3047 268.201 47.3047 258.423C47.3047 248.646 55.1615 240.789 64.8516 240.789ZM64.8516 269.161C70.7878 269.161 75.5892 264.359 75.5892 258.423C75.5892 252.487 70.7878 247.686 64.8516 247.686C58.9153 247.686 54.114 252.487 54.114 258.423C54.114 264.359 58.9153 269.161 64.8516 269.161Z" fill="#6A97FB"/>
<path d="M318.453 26.2114C328.143 26.2114 336 34.1555 336 43.8456C336 53.5356 328.143 61.4797 318.453 61.4797C308.763 61.4797 300.906 53.6229 300.906 43.8456C300.906 34.1555 308.763 26.2114 318.453 26.2114ZM318.453 54.5832C324.389 54.5832 329.191 49.7818 329.191 43.8456C329.191 37.9093 324.389 33.1079 318.453 33.1079C312.517 33.1079 307.716 37.9093 307.716 43.8456C307.716 49.7818 312.517 54.5832 318.453 54.5832Z" fill="#6A97FB"/>
<path d="M205.753 96.224C205.491 100.676 207.324 103.382 210.38 103.557C212.039 103.644 213.261 103.033 213.872 101.636C214.657 103.121 215.967 103.994 217.975 104.081C221.205 104.255 223.824 101.898 224.086 98.1446C224.348 94.3908 221.99 91.6845 218.76 91.5099C217.102 91.4226 215.792 91.8591 214.832 92.9067L214.919 91.4226L211.515 91.1607L210.991 99.1921C210.904 100.414 210.38 100.763 209.682 100.676C208.547 100.589 207.936 99.1921 208.11 96.3113C208.459 91.248 212.388 88.018 217.888 88.3672C223.387 88.7164 226.879 92.7321 226.53 97.97C226.181 103.295 222.34 106.787 216.84 106.438C215.269 106.351 213.523 105.914 212.039 105.041L211.078 107.311C212.562 108.184 214.745 108.795 216.665 108.882C223.824 109.406 228.887 104.779 229.236 98.2319C229.673 91.7718 225.221 86.534 217.975 86.0975C211.253 85.661 206.19 89.9386 205.753 96.224ZM214.57 97.5335C214.745 95.351 216.142 94.2162 217.888 94.3908C219.721 94.4781 220.856 95.8748 220.768 97.97C220.594 100.152 219.284 101.287 217.451 101.2C215.618 101.025 214.396 99.7159 214.57 97.5335Z" fill="#101C5D"/>
<path d="M82.052 195.22C83.8852 199.322 86.7661 200.807 89.5596 199.497C91.1309 198.799 91.8293 197.664 91.742 196.092C93.1388 196.965 94.7102 197.14 96.5434 196.354C99.4242 195.045 100.734 191.728 99.1623 188.236C97.591 184.831 94.2737 183.522 91.3055 184.831C89.8215 185.529 88.8612 186.577 88.512 187.887L87.9009 186.577L84.8455 187.974L88.1628 195.307C88.6866 196.354 88.3374 196.965 87.7263 197.227C86.6788 197.664 85.5439 196.791 84.3217 194.172C82.2266 189.545 84.1471 184.831 89.2104 182.561C94.2736 180.292 99.1623 182.212 101.345 187.014C103.527 191.815 101.781 196.791 96.8053 199.061C95.4085 199.672 93.6626 200.108 91.9166 200.021L92.1785 202.465C93.8372 202.552 96.0196 202.029 97.8529 201.243C104.4 198.275 106.67 191.902 103.964 185.879C101.257 179.942 94.8847 177.498 88.3374 180.466C81.8774 183.347 79.4331 189.545 82.052 195.22ZM90.4326 192.251C89.5596 190.244 90.258 188.585 91.8293 187.887C93.488 187.188 95.1466 187.799 96.0196 189.72C96.8926 191.64 96.2815 193.386 94.6228 194.085C93.0515 194.87 91.3055 194.259 90.4326 192.251Z" fill="#101C5D"/>
<path d="M257.083 188.236C255.075 192.251 255.774 195.394 258.567 196.791C260.051 197.576 261.448 197.402 262.583 196.354C262.758 198.013 263.631 199.322 265.376 200.195C268.257 201.592 271.662 200.457 273.321 197.053C274.979 193.735 273.844 190.331 270.964 188.847C269.479 188.148 268.083 188.061 266.861 188.585L267.472 187.275L264.416 185.791L260.837 193.037C260.313 194.085 259.702 194.259 259.091 193.91C258.043 193.386 258.043 191.902 259.353 189.283C261.623 184.744 266.424 183.26 271.4 185.704C276.376 188.148 277.947 193.212 275.678 197.926C273.321 202.727 268.432 204.473 263.456 202.029C262.059 201.33 260.662 200.283 259.528 198.886L257.782 200.632C258.829 202.029 260.575 203.338 262.321 204.211C268.694 207.441 275.154 205.171 278.035 199.235C280.915 193.386 278.82 186.926 272.36 183.696C266.162 180.641 259.877 182.649 257.083 188.236ZM264.765 192.862C265.726 190.942 267.472 190.418 269.043 191.204C270.702 191.989 271.225 193.735 270.265 195.656C269.305 197.576 267.646 198.188 265.988 197.402C264.416 196.529 263.805 194.783 264.765 192.862Z" fill="#101C5D"/>
</svg>
