<svg width="20" height="21" viewBox="0 0 20 21" fill="none" xmlns="http://www.w3.org/2000/svg">
<g clip-path="url(#clip0_2923_3646)">
<path d="M15.418 5.38639H17.0846V20.3864H2.91797V3.71973C10.0013 2.88639 15.2096 1.21973 15.2096 1.21973H15.418V5.38639ZM15.418 5.38639H5.0013M13.7513 12.8864C13.7513 11.8918 13.3562 10.938 12.653 10.2347C11.9497 9.53148 10.9959 9.13639 10.0013 9.13639M13.7513 12.8864C13.7513 13.3788 13.6543 13.8665 13.4659 14.3215C13.2774 14.7764 13.0012 15.1898 12.653 15.538C12.3047 15.8863 11.8913 16.1625 11.4364 16.3509C10.9814 16.5394 10.4938 16.6364 10.0013 16.6364M13.7513 12.8864C13.3346 13.3031 12.0846 13.7197 10.0013 13.7197C7.91797 13.7197 6.66797 13.3031 6.2513 12.8864M10.0013 9.13639C9.00674 9.13639 8.05291 9.53148 7.34965 10.2347C6.64639 10.938 6.2513 11.8918 6.2513 12.8864M10.0013 9.13639C10.8063 9.13639 11.4596 10.8156 11.4596 12.8864C11.4596 14.9572 10.8063 16.6364 10.0013 16.6364M10.0013 9.13639C9.1963 9.13639 8.54297 10.8156 8.54297 12.8864C8.54297 14.9572 9.1963 16.6364 10.0013 16.6364M10.0013 16.6364C9.00674 16.6364 8.05291 16.2413 7.34965 15.538C7.00143 15.1898 6.72521 14.7764 6.53675 14.3215C6.3483 13.8665 6.2513 13.3788 6.2513 12.8864" stroke="#696969"/>
</g>
<defs>
<clipPath id="clip0_2923_3646">
<rect width="20" height="20" fill="white" transform="translate(0 0.802979)"/>
</clipPath>
</defs>
</svg>
