<svg width="50" height="50" viewBox="0 0 50 50" fill="none" xmlns="http://www.w3.org/2000/svg">
<g clip-path="url(#clip0_2646_15123)">
<path d="M15.3755 22.2756C17.6652 27.3286 22.5673 29.5281 25.0004 29.5281C26.6002 29.5281 29.2675 28.5764 31.5577 26.4887C30.7203 26.5472 29.8253 26.5768 28.8689 26.5768C28.6444 26.5768 28.409 26.5747 28.1574 26.5708C27.6753 26.9421 27.078 27.1514 26.4583 27.1514H24.4205C22.8848 27.1514 21.6354 25.9021 21.6354 24.3664C21.6354 22.8307 22.8848 21.5814 24.4205 21.5814H26.4583C27.1945 21.5814 27.883 21.8683 28.3937 22.3632C28.5633 22.3651 28.7306 22.366 28.8947 22.366C31.5254 22.366 33.259 22.1247 34.3931 21.8337C34.246 21.4757 34.1658 21.084 34.1658 20.6751V13.6138C34.1658 12.8792 34.4385 12.1751 34.9099 11.6312C34.6583 9.67281 34.2017 8.17773 33.5203 7.07486C32.1161 4.80216 29.4088 3.74371 25.0004 3.74371C21.3434 3.74371 18.818 4.50287 17.2801 6.06451C16.088 7.27511 15.3971 9.0025 15.0742 11.6113C15.5562 12.1573 15.835 12.8686 15.835 13.6138V20.6751C15.8351 21.2627 15.6663 21.811 15.3755 22.2756Z" fill="white"/>
<path d="M10.3654 22.3422H12.81C13.7303 22.3422 14.4769 21.5958 14.4769 20.6751V13.6138C14.4769 12.9987 14.1429 12.4627 13.6473 12.1739C14.1931 6.39182 16.4244 2.38506 25.0009 2.38506C29.926 2.38506 33.0006 3.64851 34.6765 6.36084C35.6516 7.9392 36.1207 9.97783 36.3399 12.1826C35.8521 12.4735 35.5247 13.0047 35.5247 13.6137V20.675C35.5247 21.4688 36.0801 22.1316 36.8231 22.2997C35.7455 23.0045 33.5145 23.7244 28.895 23.7244C28.5209 23.7244 28.1309 23.7196 27.7247 23.7099C27.4869 23.2527 27.0098 22.9398 26.4588 22.9398H24.4211C23.6334 22.9398 22.9946 23.5785 22.9946 24.3663C22.9946 25.1541 23.6334 25.7928 24.4211 25.7928H26.4588C26.9348 25.7928 27.3554 25.5587 27.6143 25.2005C28.0434 25.2113 28.4634 25.2181 28.8694 25.2181C34.0764 25.218 37.3865 24.3292 38.7271 22.5658C38.7842 22.4908 38.8362 22.4161 38.8836 22.3422H39.6366C40.5571 22.3422 41.3036 21.5958 41.3036 20.6751V13.6138C41.3036 12.6933 40.5572 11.9469 39.6366 11.9469H38.7172C38.4585 9.28307 37.8851 7.01539 36.7056 5.1069C34.5825 1.67047 30.7535 0 25.0008 0C19.2476 0 15.4191 1.67047 13.2958 5.10704C12.1165 7.01552 11.5433 9.28293 11.2845 11.947H10.3653C9.44463 11.947 8.69824 12.6933 8.69824 13.614V20.6753C8.69824 21.5958 9.44476 22.3422 10.3654 22.3422Z" fill="white"/>
<path d="M45.154 43.1065C44.5998 39.6603 43.4587 35.2211 41.1702 33.6438C39.6098 32.5677 34.1621 29.657 31.8358 28.4142L31.7869 28.3881C31.5206 28.2459 31.1958 28.2744 30.9585 28.4607C29.7381 29.4186 28.4021 30.0639 26.9877 30.3787C26.7377 30.4342 26.5325 30.6121 26.4416 30.8515L25.0003 34.6501L23.559 30.8515C23.4681 30.6119 23.2629 30.4342 23.0129 30.3787C21.5985 30.0639 20.2622 29.4186 19.0417 28.4607C18.8045 28.2743 18.4796 28.2458 18.2134 28.3881C15.9131 29.6171 10.3949 32.5889 8.83689 33.6392C6.20145 35.4147 5.05049 41.8372 4.84657 43.1066C4.82633 43.2325 4.83802 43.3613 4.88054 43.4814C4.97482 43.7477 7.39222 50.0001 25.0002 50.0001C42.6079 50.0001 45.0255 43.7477 45.1199 43.4816C45.1626 43.3612 45.1743 43.2323 45.154 43.1065ZM36.9555 39.149H29.9815V37.6803H36.9555V39.149Z" fill="white"/>
</g>
<defs>
<clipPath id="clip0_2646_15123">
<rect width="50" height="50" fill="white"/>
</clipPath>
</defs>
</svg>
